<?xml version="1.0" encoding="utf-8"?>
<!-- Generator: Adobe Illustrator 18.0.0, SVG Export Plug-In . SVG Version: 6.00 Build 0)  -->
<!DOCTYPE svg PUBLIC "-//W3C//DTD SVG 1.1//EN" "http://www.w3.org/Graphics/SVG/1.1/DTD/svg11.dtd">
<svg version="1.1" xmlns="http://www.w3.org/2000/svg" xmlns:xlink="http://www.w3.org/1999/xlink" x="0px" y="0px"
	 viewBox="0 0 61.2 61.2" enable-background="new 0 0 61.2 61.2" xml:space="preserve">
<g id="grid">
</g>
<g id="_x32_4_Grid_Col_1_">
	<g>
		<circle fill="#414042" cx="30.6" cy="30.6" r="30.6"/>
		<g>
			<path fill="#FFFFFF" d="M45.6,32c0,0-12.6,11.7-18.8-0.3c-6.2-12,12.5-14,12.5-14l-2-5C-1.8,12.9,5.6,35.7,8.8,41.1
				c3.2,5.4,14.8,20.6,39.4-3.8L45.6,32z"/>
			<polygon fill="#FFFFFF" points="52,33.2 49.3,36.5 38.5,12.6 43,12.6 			"/>
			<path fill="#0B81C5" d="M44.2,12.5c-0.1,0,4.6,10.7,4.6,10.7l5-2.6c0,0,0,0,0,0C52.6,17,49.1,13.7,44.2,12.5z"/>
		</g>
	</g>
</g>
</svg>
