<?xml version="1.0" encoding="utf-8"?>
<!-- Generator: Adobe Illustrator 18.0.0, SVG Export Plug-In . SVG Version: 6.00 Build 0)  -->
<!DOCTYPE svg PUBLIC "-//W3C//DTD SVG 1.1//EN" "http://www.w3.org/Graphics/SVG/1.1/DTD/svg11.dtd">
<svg version="1.1" xmlns="http://www.w3.org/2000/svg" xmlns:xlink="http://www.w3.org/1999/xlink" x="0px" y="0px"
	 viewBox="0 0 307.6 36.1" enable-background="new 0 0 307.6 36.1" xml:space="preserve">
<g id="grid">
</g>
<g id="_x32_4_Grid_Col_1_">
	<g>
		<path fill="#0B81C5" d="M112.3,0.9v30.6h-2.6V0.9H112.3z"/>
		<path fill="#0B81C5" d="M132.7,3.5h-15.9V0.9h20.3L120.9,29h15.9v2.6h-20.3L132.7,3.5z"/>
		<path fill="#0B81C5" d="M192.9,0.6h2.6v21.8c-0.3,2.4-1.3,4.4-3,6.1c-2,2-4.4,3-7.2,3c-2.8,0-5.2-1-7.2-3c-2-2-3-4.4-3-7.2V0.6
			h2.6v20.8c0,2.1,0.7,3.9,2.2,5.3c1.5,1.5,3.3,2.2,5.4,2.2c2.1,0,3.9-0.7,5.4-2.2c1.5-1.5,2.2-3.3,2.2-5.3V0.6z"/>
		<path fill="#0B81C5" d="M204.5,0.9v30.6H202V0.9H204.5z"/>
		<path fill="#0B81C5" d="M226.8,0.9v2.6h-13.2v11.5h13.2v2.5h-13.2V29h13.2v2.6H211V0.9H226.8z"/>
		<path fill="#0B81C5" d="M240.3,21.2h-4.6v10.3h-2.6V0.9h8.3c2.4,0.3,4.4,1.3,6.1,3c2,2,3,4.4,3,7.2c0,2.8-1,5.2-3,7.2
			c-1.4,1.4-2.7,2.2-4.1,2.6l7,10.7h-3.1L240.3,21.2z M235.6,3.5v15.2h4.6c2.1,0,3.9-0.7,5.4-2.2c1.5-1.5,2.2-3.3,2.2-5.4
			c0-2.1-0.7-3.9-2.2-5.3c-1.5-1.5-3.3-2.2-5.4-2.2H235.6z"/>
		<path fill="#0B81C5" d="M272.3,16.2c0-4.3-1.5-8-4.6-11.1c-2.8-2.8-6.7-4.2-11.7-4.2h0.3v0h-2.6v2.6h2.6v0c4.1,0,7.3,1.1,9.5,3.4
			c2.5,2.6,3.8,5.6,3.8,9.3c0,3.6-1.3,6.7-3.8,9.3c-2.3,2.3-5.5,3.4-9.5,3.4h-2.6v2.6h2.6v0H256c5,0,8.9-1.4,11.7-4.2
			C270.8,24.3,272.3,20.6,272.3,16.2z"/>
		<path fill="#0B81C5" d="M303,4.7c3.1,3.1,4.6,6.8,4.6,11.1c0,4.3-1.5,8-4.6,11.1c-3.1,3.1-6.8,4.6-11.1,4.6c-4.3,0-8-1.5-11.1-4.6
			c-3.1-3.1-4.6-6.8-4.6-11.1c0-4.3,1.5-8,4.6-11.1c3.1-3.1,6.8-4.6,11.1-4.6C296.2,0.1,299.9,1.7,303,4.7z M291.8,2.7
			c-3.6,0-6.7,1.3-9.3,3.8c-2.6,2.6-3.8,5.7-3.8,9.3c0,3.6,1.3,6.7,3.8,9.3c2.6,2.6,5.7,3.9,9.3,3.9c3.6,0,6.7-1.3,9.3-3.9
			c2.6-2.6,3.8-5.7,3.8-9.3c0-3.6-1.3-6.7-3.8-9.3C298.6,4,295.5,2.7,291.8,2.7z"/>
		<path fill="#0B81C5" d="M138.2,15.7c0,4.3,1.5,8,4.6,11.1c1,1,1.9,1.8,2.9,2.4c1.8,1.1,3.9,1.9,6.2,2.2l0.3,0
			c0.6,0.1,1.1,0.1,1.7,0.1c3.2,0,6.3-1,8.8-2.7c0.8-0.6,1.6-1.3,2.4-2.1c3.1-3.1,4.6-6.8,4.6-11.1c0-1.1-0.1-2.1-0.3-3.1
			c-0.5-2.3-1.5-4.4-2.8-6.2c-0.5-0.6-0.9-1.2-1.5-1.7c-0.6-0.6-1.3-1.2-2-1.7c-1.8-1.3-4-2.2-6.3-2.7c-0.9-0.2-1.9-0.2-2.8-0.2
			c-1.4,0-2.7,0.2-3.9,0.5c-0.3,0.1-0.5,0.1-0.8,0.2c0,0,0,0,0,0c-0.5,0.2-1,0.3-1.4,0.5c0,0,0,0,0,0c-0.4,0.2-0.8,0.4-1.2,0.6
			c-1.3,0.7-2.5,1.6-3.7,2.8C139.8,7.7,138.2,11.4,138.2,15.7z M153.9,2.6c3.6,0,6.7,1.3,9.3,3.8c2.6,2.6,3.8,5.7,3.8,9.3
			c0,3.6-1.3,6.7-3.8,9.3c-2.6,2.6-5.6,3.8-9.3,3.8c-3.6,0-6.7-1.3-9.3-3.8c-2.6-2.6-3.8-5.7-3.8-9.3c0-3.6,1.3-6.7,3.8-9.3
			C147.2,3.9,150.3,2.6,153.9,2.6z"/>
		<path fill="#0B81C5" d="M159.5,31.7c-1.2,0.9-2.1,1.4-2.8,1.4h-0.1c-0.5,0-1-0.7-1.3-2.1h-2.9c0.5,2.9,1.5,4.5,3,5
			c0.4,0.1,0.8,0.2,1.2,0.2c1.1,0,2.2-0.4,3.3-1.3c1.2-0.9,2.1-1.3,2.8-1.3h0.1c0.5,0,1,0.7,1.3,2.1h3c-0.5-2.9-1.5-4.5-3.1-5
			c-0.4-0.1-0.8-0.2-1.2-0.2C161.7,30.4,160.6,30.8,159.5,31.7z"/>
		<path fill="#FFFFFF" d="M23.9,31.5V0.9h2.6V29H38v2.6H23.9z"/>
		<path fill="#FFFFFF" d="M45,0.9v30.6h-2.6V0.9H45z"/>
		<path fill="#FFFFFF" d="M75.5,16.8v14.7h-2.6V0.9h2.6v11.8l8.8-11.8h3.3l-9.3,12.4l11.8,18.2H87L76.7,15.4L75.5,16.8z"/>
		<path fill="#FFFFFF" d="M0,16.2c0-4.3,1.5-8,4.6-11.1c2.8-2.8,6.7-4.2,11.8-4.2h-0.3v0h2.6v2.6h-2.6v0C12,3.5,8.8,4.7,6.5,7
			c-2.6,2.6-3.8,5.6-3.8,9.3c0,3.6,1.3,6.7,3.8,9.3c2.3,2.3,5.5,3.4,9.6,3.4h2.6v2.6h-2.6v0h0.3c-5,0-9-1.4-11.8-4.2
			C1.5,24.3,0,20.6,0,16.2z"/>
		<path fill="#FFFFFF" d="M49.4,16.2c0-4.3,1.5-8,4.6-11.1c2.8-2.8,6.7-4.2,11.8-4.2h-0.3v0h2.6v2.6h-2.6v0c-4.1,0-7.3,1.1-9.6,3.4
			c-2.6,2.6-3.8,5.6-3.8,9.3c0,3.6,1.3,6.7,3.8,9.3c2.3,2.3,5.5,3.4,9.6,3.4h2.6v2.6h-2.6v0h0.3c-5.1,0-9-1.4-11.8-4.2
			C51,24.3,49.4,20.6,49.4,16.2z"/>
	</g>
</g>
</svg>
